# xmcd CD database file
#
# Track frame offsets:
#	150
#	13662
#	33771
#	48819
#	59379
#	75624
#	96285
#	108827
#	129970
#	149736
#	167946
#	180014
#
# Disc length: 2766 seconds
#
# Revision: 0
# Processed by: cddbd v1.5.2PL0 Copyright (c) Steve Scherf et al.
# Submitted via: CDex 1.51
#
DISCID=900acc0c
DTITLE=Brad Boyer - Montagu Hotel
DYEAR=2014
DGENRE=Country
TTITLE0=Big Rig Driver
TTITLE1=Mockingbirds
TTITLE2=Long Cold December
TTITLE3=Five Stones and a Sling
TTITLE4=Tonight I'm Gonna Lose
TTITLE5=The Light
TTITLE6=Smile
TTITLE7=The Ring
TTITLE8=Trouble
TTITLE9=Texas Darlin'
TTITLE10=The Last Folk Singer
TTITLE11=Brad Boyer - Montagu Hotel
EXTD=YEAR: 2014
EXTT0=
EXTT1=
EXTT2=
EXTT3=
EXTT4=
EXTT5=
EXTT6=
EXTT7=
EXTT8=
EXTT9=
EXTT10=
EXTT11=
PLAYORDER=
